<svg width="12" height="12" viewBox="0 0 12 12" fill="none" xmlns="http://www.w3.org/2000/svg">
<path d="M5.83356 1.07855C5.88595 0.917316 6.11405 0.917317 6.16644 1.07855L7.10207 3.95813C7.17235 4.17444 7.37393 4.3209 7.60137 4.3209H10.6291C10.7987 4.3209 10.8692 4.53783 10.732 4.63748L8.28249 6.41716C8.09848 6.55085 8.02149 6.78781 8.09177 7.00413L9.02741 9.88371C9.07979 10.0449 8.89526 10.179 8.75811 10.0794L6.30859 8.29969C6.12458 8.166 5.87542 8.166 5.69141 8.29968L3.24189 10.0794C3.10474 10.179 2.92021 10.0449 2.97259 9.88371L3.90823 7.00413C3.97851 6.78781 3.90152 6.55085 3.71751 6.41716L1.26799 4.63748C1.13084 4.53783 1.20132 4.3209 1.37085 4.3209H4.39863C4.62607 4.3209 4.82765 4.17444 4.89793 3.95813L5.83356 1.07855Z" fill="#FE655A" stroke="#FE655A" stroke-width="0.35"/>
<mask id="mask0_62_3" style="mask-type:alpha" maskUnits="userSpaceOnUse" x="1" y="0" width="10" height="11">
<path d="M5.66713 1.02447C5.7719 0.702009 6.2281 0.702009 6.33287 1.02447L7.2685 3.90405C7.31536 4.04826 7.44974 4.1459 7.60137 4.1459H10.6291C10.9682 4.1459 11.1092 4.57976 10.8349 4.77905L8.38535 6.55874C8.26268 6.64786 8.21135 6.80584 8.25821 6.95005L9.19384 9.82963C9.29861 10.1521 8.92955 10.4202 8.65525 10.2209L6.20573 8.44126C6.08305 8.35214 5.91695 8.35214 5.79428 8.44126L3.34475 10.2209C3.07045 10.4202 2.70139 10.1521 2.80616 9.82963L3.74179 6.95005C3.78865 6.80584 3.73732 6.64786 3.61465 6.55874L1.16513 4.77905C0.890826 4.57976 1.0318 4.1459 1.37085 4.1459H4.39863C4.55025 4.1459 4.68464 4.04826 4.7315 3.90405L5.66713 1.02447Z" fill="#FE655A"/>
</mask>
<g mask="url(#mask0_62_3)">
<rect x="6.25" y="-2" width="7.5" height="15" fill="#202322"/>
</g>
<path d="M5.08814 4.01994L6 1.21353L6.91186 4.01994C7.00892 4.31865 7.28728 4.5209 7.60137 4.5209H10.5522L8.16493 6.25535C7.91083 6.43997 7.8045 6.76721 7.90156 7.06593L8.81342 9.87234L6.42614 8.13788C6.17204 7.95327 5.82796 7.95327 5.57386 8.13788L3.18658 9.87234L4.09844 7.06593C4.1955 6.76721 4.08917 6.43997 3.83507 6.25535L1.44779 4.5209H4.39863C4.71271 4.5209 4.99108 4.31865 5.08814 4.01994Z" stroke="#FE655A" stroke-width="0.75"/>
</svg>
